<?xml version="1.0" encoding="utf-8"?>
<!-- Generator: Adobe Illustrator 15.1.0, SVG Export Plug-In . SVG Version: 6.00 Build 0)  -->
<!DOCTYPE svg PUBLIC "-//W3C//DTD SVG 1.1//EN" "http://www.w3.org/Graphics/SVG/1.1/DTD/svg11.dtd">
<svg version="1.1" id="Layer_1" xmlns="http://www.w3.org/2000/svg" xmlns:xlink="http://www.w3.org/1999/xlink" x="0px" y="0px"
	 width="124.963px" height="130.188px" viewBox="0 0 124.963 130.188" enable-background="new 0 0 124.963 130.188"
	 xml:space="preserve">
<path fill="#666666" d="M63.422,11.52H20.697V0H0v20.784h11.435v44.31h3.087V20.783h3.089v44.311h3.086V20.783h42.726v-3.088H20.697
	V14.61h42.726L63.422,11.52L63.422,11.52z M11.435,11.52H9.259V9.261h2.176V11.52z M14.521,11.52V6.172H6.173v8.438h5.262v3.087
	H3.086V3.086H17.61v8.435L14.521,11.52L14.521,11.52z M17.611,17.696h-3.089V14.61h3.089V17.696z"/>
<path fill="#666666" d="M62.501,14.61h41.727v3.086H62.501v3.088h41.727v44.311h3.086V20.783h3.088v44.311h3.088v-44.31h11.436V0
	h-20.695v11.52H62.501V14.61z M113.487,9.261h2.178v2.259h-2.178V9.261z M107.313,11.52V3.086h14.523v14.609h-8.35v-3.087h5.263
	V6.172h-8.349v5.349L107.313,11.52L107.313,11.52z M107.313,14.61h3.088v3.086h-3.088V14.61z"/>
<path fill="#666666" d="M63.461,115.577H20.736v-3.086h42.726v-3.088H20.736v-44.31H17.65v44.311h-3.089V65.094h-3.087v44.31H0.039
	v20.784h20.697v-11.521h42.726L63.461,115.577L63.461,115.577z M11.474,120.926H9.298v-2.259h2.176V120.926z M17.649,118.667v8.435
	H3.125v-14.609h8.349v3.087H6.212v8.438h8.348v-5.349L17.649,118.667L17.649,118.667z M17.65,115.577h-3.089v-3.086h3.089V115.577z"
	/>
<path fill="#666666" d="M62.54,118.667h41.727v11.521h20.696v-20.784h-11.437v-44.31h-3.086v44.312h-3.09V65.094h-3.084v44.311
	H62.54v3.088h41.727v3.086H62.54V118.667z M113.526,118.667h2.178v2.259h-2.178V118.667z M110.44,118.667v5.349h8.35v-8.438h-5.264
	v-3.087h8.351v14.609h-14.524v-8.435L110.44,118.667L110.44,118.667z M107.353,112.491h3.088v3.086h-3.088V112.491z"/>
<g>
	<line fill="none" stroke="#666666" stroke-width="2" stroke-miterlimit="10" x1="28.634" y1="11.76" x2="20.583" y2="19.811"/>
	<line fill="none" stroke="#666666" stroke-width="2" stroke-miterlimit="10" x1="43.354" y1="12.556" x2="35.303" y2="20.607"/>
	<line fill="none" stroke="#666666" stroke-width="2" stroke-miterlimit="10" x1="52.626" y1="11.76" x2="44.575" y2="19.811"/>
	<line fill="none" stroke="#666666" stroke-width="2" stroke-miterlimit="10" x1="62.481" y1="10.855" x2="54.431" y2="18.906"/>
	<line fill="none" stroke="#666666" stroke-width="2" stroke-miterlimit="10" x1="71.474" y1="10.855" x2="63.423" y2="18.906"/>
	<line fill="none" stroke="#666666" stroke-width="2" stroke-miterlimit="10" x1="80.324" y1="10.855" x2="72.273" y2="18.906"/>
	<line fill="none" stroke="#666666" stroke-width="2" stroke-miterlimit="10" x1="88.375" y1="11.76" x2="80.324" y2="19.811"/>
	<line fill="none" stroke="#666666" stroke-width="2" stroke-miterlimit="10" x1="94.512" y1="11.76" x2="86.461" y2="19.811"/>
	<line fill="none" stroke="#666666" stroke-width="2" stroke-miterlimit="10" x1="101.118" y1="10.855" x2="93.067" y2="18.906"/>
	<line fill="none" stroke="#666666" stroke-width="2" stroke-miterlimit="10" x1="36.417" y1="11.76" x2="28.366" y2="19.811"/>
</g>
<g>
	<line fill="none" stroke="#666666" stroke-width="2" stroke-miterlimit="10" x1="28.634" y1="110.009" x2="20.583" y2="118.06"/>
	<line fill="none" stroke="#666666" stroke-width="2" stroke-miterlimit="10" x1="43.354" y1="110.805" x2="35.303" y2="118.856"/>
	<line fill="none" stroke="#666666" stroke-width="2" stroke-miterlimit="10" x1="52.626" y1="110.009" x2="44.575" y2="118.06"/>
	<line fill="none" stroke="#666666" stroke-width="2" stroke-miterlimit="10" x1="62.481" y1="109.104" x2="54.431" y2="117.155"/>
	<line fill="none" stroke="#666666" stroke-width="2" stroke-miterlimit="10" x1="71.474" y1="109.104" x2="63.423" y2="117.155"/>
	<line fill="none" stroke="#666666" stroke-width="2" stroke-miterlimit="10" x1="80.324" y1="109.104" x2="72.273" y2="117.155"/>
	<line fill="none" stroke="#666666" stroke-width="2" stroke-miterlimit="10" x1="88.375" y1="110.009" x2="80.324" y2="118.06"/>
	<line fill="none" stroke="#666666" stroke-width="2" stroke-miterlimit="10" x1="94.512" y1="110.009" x2="86.461" y2="118.06"/>
	<line fill="none" stroke="#666666" stroke-width="2" stroke-miterlimit="10" x1="101.118" y1="109.104" x2="93.067" y2="117.155"/>
	<line fill="none" stroke="#666666" stroke-width="2" stroke-miterlimit="10" x1="36.417" y1="110.009" x2="28.366" y2="118.06"/>
</g>
<g>
	<line fill="none" stroke="#666666" stroke-width="2" stroke-miterlimit="10" x1="113.07" y1="32.878" x2="105.02" y2="24.827"/>
	<line fill="none" stroke="#666666" stroke-width="2" stroke-miterlimit="10" x1="112.274" y1="47.596" x2="104.224" y2="39.546"/>
	<line fill="none" stroke="#666666" stroke-width="2" stroke-miterlimit="10" x1="113.07" y1="56.869" x2="105.02" y2="48.818"/>
	<line fill="none" stroke="#666666" stroke-width="2" stroke-miterlimit="10" x1="113.976" y1="66.725" x2="105.925" y2="58.674"/>
	<line fill="none" stroke="#666666" stroke-width="2" stroke-miterlimit="10" x1="113.976" y1="75.717" x2="105.925" y2="67.666"/>
	<line fill="none" stroke="#666666" stroke-width="2" stroke-miterlimit="10" x1="113.976" y1="84.567" x2="105.925" y2="76.516"/>
	<line fill="none" stroke="#666666" stroke-width="2" stroke-miterlimit="10" x1="113.07" y1="92.617" x2="105.02" y2="84.567"/>
	<line fill="none" stroke="#666666" stroke-width="2" stroke-miterlimit="10" x1="113.07" y1="98.754" x2="105.02" y2="90.703"/>
	<line fill="none" stroke="#666666" stroke-width="2" stroke-miterlimit="10" x1="113.976" y1="105.362" x2="105.925" y2="97.311"/>
	<line fill="none" stroke="#666666" stroke-width="2" stroke-miterlimit="10" x1="113.07" y1="40.66" x2="105.02" y2="32.609"/>
</g>
<g>
	<line fill="none" stroke="#666666" stroke-width="2" stroke-miterlimit="10" x1="19.678" y1="32.878" x2="11.627" y2="24.827"/>
	<line fill="none" stroke="#666666" stroke-width="2" stroke-miterlimit="10" x1="18.882" y1="47.596" x2="10.832" y2="39.546"/>
	<line fill="none" stroke="#666666" stroke-width="2" stroke-miterlimit="10" x1="19.678" y1="56.869" x2="11.627" y2="48.818"/>
	<line fill="none" stroke="#666666" stroke-width="2" stroke-miterlimit="10" x1="20.583" y1="66.725" x2="12.533" y2="58.674"/>
	<line fill="none" stroke="#666666" stroke-width="2" stroke-miterlimit="10" x1="20.583" y1="75.717" x2="12.533" y2="67.666"/>
	<line fill="none" stroke="#666666" stroke-width="2" stroke-miterlimit="10" x1="20.583" y1="84.567" x2="12.533" y2="76.516"/>
	<line fill="none" stroke="#666666" stroke-width="2" stroke-miterlimit="10" x1="19.678" y1="92.617" x2="11.627" y2="84.567"/>
	<line fill="none" stroke="#666666" stroke-width="2" stroke-miterlimit="10" x1="19.678" y1="98.754" x2="11.627" y2="90.703"/>
	<line fill="none" stroke="#666666" stroke-width="2" stroke-miterlimit="10" x1="20.583" y1="105.362" x2="12.533" y2="97.311"/>
	<line fill="none" stroke="#666666" stroke-width="2" stroke-miterlimit="10" x1="19.678" y1="40.66" x2="11.627" y2="32.609"/>
</g>
<g>
	<path fill="#666666" d="M101.026,105.192H23.573V24.997h77.453V105.192z M27.573,101.192h69.453V28.997H27.573V101.192z"/>
</g>
</svg>
