<?xml version="1.0" encoding="utf-8"?>
<!-- Generator: Adobe Illustrator 15.1.0, SVG Export Plug-In . SVG Version: 6.00 Build 0)  -->
<!DOCTYPE svg PUBLIC "-//W3C//DTD SVG 1.1//EN" "http://www.w3.org/Graphics/SVG/1.1/DTD/svg11.dtd">
<svg version="1.1" id="Layer_1" xmlns="http://www.w3.org/2000/svg" xmlns:xlink="http://www.w3.org/1999/xlink" x="0px" y="0px"
	 width="618.048px" height="420.802px" viewBox="0 0 618.048 420.802" enable-background="new 0 0 618.048 420.802"
	 xml:space="preserve">
<path fill-rule="evenodd" clip-rule="evenodd" fill="#FFFFFF" d="M370.803,93.854c0.268,0,0.533,0,0.802,0
	c1.443,24.343-1.528,47.655-2.807,70.61c-22.947,7.541-45.893,15.084-67.802,23.671c-5.367-2.391-10.109-5.405-15.646-7.622
	c3.695-7.272,7.755-14.177,11.232-21.667c23.119-11.386,45.899-23.106,68.606-34.904c-22.445,9.786-44.926,23.01-67.802,33.701
	c0.374-0.797,1.305-1.91,0.402-2.808c-7.361-6.549-15.131-12.688-24.073-17.653c-4.686-6.478-15.775-9.855-22.467-15.647
	C291.271,112.479,331.144,103.271,370.803,93.854z M326.27,126.35c-7.499,3.44-15.589,5.89-22.866,10.032
	c23.048-9.316,46.008-18.723,65.794-31.294C355.354,112.553,341.03,119.58,326.27,126.35z M307.416,141.997
	c-2.401,1.127-5.367,2.32-6.82,4.413c20.583-9.907,41.5-19.48,62.586-28.887c0.056-0.473,0.714-0.909,0-1.204
	C345.47,125.38,325.341,133.579,307.416,141.997z M302.601,163.663c-2.915,1.56-6.51,3.191-7.623,5.213
	c23.407-12.3,46.76-24.655,70.612-36.509c0.056-0.474,0.711-0.907,0-1.202C345.467,142.447,322.934,152.778,302.601,163.663z
	 M366.395,142.397c-24.029,11.011-47.845,22.237-71.017,34.102C319.454,165.537,343.237,154.278,366.395,142.397z M365.59,152.428
	c-0.044-0.489-0.121-0.95-0.802-0.803c-21.71,10.791-44.804,20.193-66.199,31.294C321.437,173.271,342.848,162.184,365.59,152.428z
	 M361.574,161.253c0.09-0.502,0.626-0.82-0.399-0.801c-11.648,5.339-24.204,9.764-35.707,15.247
	C337.117,172.098,349.477,165.745,361.574,161.253z"/>
<path fill-rule="evenodd" clip-rule="evenodd" fill="#FFFFFF" d="M270.103,135.579c-14.647,28.144-29.844,55.74-44.132,84.249
	c-9.754-4.954-20.23-9.185-30.087-14.039c2.384-4.972,5.344-9.366,8.825-13.242c9.166,3.146,20.453,6.288,31.295,6.421
	c-1.211-2.846-5.444-2.404-8.025-2.811c-8.733-1.364-18.419-3.305-25.275-6.819c5.201-7.504,11.198-17.7,10.431-31.293
	c-0.404-7.131-3.71-15.146-11.635-15.247c-13.86-0.173-23.979,22.583-19.259,38.517c-4.133,1.052-8.565-1.062-11.634-2.409
	c11.756-26.493,24.033-52.461,36.909-77.83C230.356,111.438,249.383,123.62,270.103,135.579z M242.821,169.679
	c6.465-9.851,10.835-21.797,16.851-32.094c-0.045-0.49-0.118-0.951-0.801-0.803C253.848,148.074,247.842,158.383,242.821,169.679z
	 M245.231,158.445c2.543-3.876,4.711-10.261,5.213-14.844C248.653,148.498,246.956,153.486,245.231,158.445z"/>
<path fill-rule="evenodd" clip-rule="evenodd" d="M363.183,116.32c0.714,0.294,0.056,0.731,0,1.204
	c-21.086,9.406-42.004,18.98-62.586,28.887c1.453-2.093,4.419-3.286,6.82-4.413C325.341,133.579,345.47,125.38,363.183,116.32z"/>
<path fill-rule="evenodd" clip-rule="evenodd" d="M414.937,142.397c-3.037,0.498-4.075-1.004-5.217-2.407
	c-13.061-4.588-24.435-10.872-35.702-17.251c12.09,5.024,24.406,13.301,38.512,17.653
	C411.41,142.79,414.372,139.766,414.937,142.397z"/>
<path fill-rule="evenodd" clip-rule="evenodd" d="M365.59,131.166c0.711,0.294,0.056,0.728,0,1.202
	c-23.853,11.854-47.205,24.209-70.612,36.509c1.113-2.022,4.708-3.653,7.623-5.213C322.934,152.778,345.467,142.447,365.59,131.166z
	"/>
<path fill-rule="evenodd" clip-rule="evenodd" fill="#FFFFFF" d="M481.132,134.774c-1.69,47.859-5.063,95.315-7.218,143.626
	c-57.378,12.905-115.074,25.938-173.318,38.918c-0.298-42.821,0.645-84.407,0.4-127.177
	c49.546-18.536,101.833-34.847,155.663-49.348C464.676,138.634,473.711,136.125,481.132,134.774z M450.639,150.021
	c-0.398,0-0.801,0-1.2,0c-42.442,13.342-86.926,26.119-129.585,39.318c-3.09,0.955-6.682,1.293-7.623,3.208
	C358.022,178.025,405.32,165.012,450.639,150.021z M475.517,154.436c-1.469,33.597-4.243,70.313-3.209,103.509
	c0.749-32.492,1.818-70.684,4.01-104.312c-0.09-0.313-0.336-0.466-0.801-0.401C475.517,153.633,475.517,154.033,475.517,154.436z
	 M318.248,193.75c-1.74,0.493-4.628,0.378-5.217,2.407c16.311-5.62,34.786-9.079,50.551-15.244
	C348.891,184.873,332.384,189.766,318.248,193.75z M316.645,198.165c6.511-2.176,13.461-3.925,19.257-6.82
	C329.257,193.39,322.257,195.091,316.645,198.165z M316.645,200.17c4.438-0.911,8.958-1.737,13.235-2.808
	c0.406-0.004,0.506-0.703,0-0.805C325.917,198.21,319.943,197.855,316.645,200.17z M467.491,253.936
	c0.933-16.729,1.534-36.857-0.805-52.562C467.919,218.104,467.183,237.417,467.491,253.936z M463.082,248.716
	c-0.991-7.038,0.237-16.285-1.605-22.472C462.063,233.682,461.103,242.667,463.082,248.716z M459.871,248.314
	c-1.119-3.836-0.817-9.083-2.81-12.038C458.051,240.235,457.804,245.432,459.871,248.314z M306.209,313.309
	c42.485-11.811,85.383-23.207,127.182-35.71C390.72,289.23,347.69,300.488,306.209,313.309z M306.209,309.299
	c12.095-2.757,26.094-6.868,37.713-10.031c1.463-0.398,5.251-0.404,4.017-1.608C334.174,301.686,319.267,304.567,306.209,309.299z
	 M309.021,301.675c2.426-1.72,6.997-1.297,8.824-3.613C315.195,299.293,309.586,299.693,309.021,301.675z M309.021,304.884
	c5.432-1.655,11.83-2.348,16.446-4.814C319.987,301.675,313.642,302.416,309.021,304.884z"/>
<path fill-rule="evenodd" clip-rule="evenodd" d="M376.421,134.774c9.406,4.37,19.581,7.969,28.083,13.241
	C395.125,143.621,384.958,140.014,376.421,134.774z"/>
<path fill-rule="evenodd" clip-rule="evenodd" d="M258.871,136.782c0.683-0.148,0.756,0.313,0.801,0.803
	c-6.016,10.296-10.385,22.243-16.851,32.094C247.842,158.383,253.848,148.074,258.871,136.782z"/>
<path fill-rule="evenodd" clip-rule="evenodd" fill="#FFFFFF" d="M270.907,138.387c0.719-0.05,0.845,0.493,1.604,0.402
	c-0.331,1.275-1.723,1.487-2.809,2.005C269.684,139.573,270.549,139.235,270.907,138.387z"/>
<path fill-rule="evenodd" clip-rule="evenodd" fill="#FFFFFF" d="M279.734,144.002c-5.718,2.441-10.525,5.794-16.048,8.426
	c1.316-6.307,8.792-6.454,12.837-10.03c-3.919,0.895-6.331,3.299-10.029,4.415C268.139,140.221,276.124,137.493,279.734,144.002z"/>
<path fill-rule="evenodd" clip-rule="evenodd" d="M374.413,140.393c6.975,3.728,15.964,8.911,24.077,12.839
	C389.397,150.013,381.487,145.625,374.413,140.393z"/>
<path fill-rule="evenodd" clip-rule="evenodd" d="M295.378,176.499c23.172-11.865,46.987-23.09,71.017-34.102
	C343.237,154.278,319.454,165.537,295.378,176.499z"/>
<path fill-rule="evenodd" clip-rule="evenodd" d="M250.445,143.601c-0.502,4.583-2.67,10.967-5.213,14.844
	C246.956,153.486,248.653,148.498,250.445,143.601z"/>
<path fill-rule="evenodd" clip-rule="evenodd" fill="#FFFFFF" d="M282.542,145.609c-8.011,3.087-14.753,7.444-21.266,12.035
	c-0.738-1.029,1.38-2.619,1.608-4.011c5.89-3.07,11.888-6.031,17.251-9.631C281.439,144.035,282.293,144.516,282.542,145.609z"/>
<path fill-rule="evenodd" clip-rule="evenodd" fill="#FFFFFF" d="M207.116,147.213c-16.76-0.147-14.477,22.143-19.258,35.305
	c-1.319-0.017-1.997-0.679-3.609-0.401c-3.925-13.637,2.624-32.173,12.836-36.509C200.436,144.186,204.295,144.943,207.116,147.213z
	"/>
<path fill-rule="evenodd" clip-rule="evenodd" fill="#FFFFFF" d="M286.151,147.614c-9.576,4.869-19.473,9.411-27.682,15.647
	c-0.953-1.11,1.277-2.451,1.203-4.013c6.08-3.542,15.904-10.688,22.87-13.238C283.995,145.478,284.961,147.365,286.151,147.614z"/>
<path fill-rule="evenodd" clip-rule="evenodd" fill="#FFFFFF" d="M288.561,149.62c-10.709,6.144-21.608,12.093-32.9,17.652
	c7.498-8.954,19.955-12.942,30.49-18.855C287.705,148.068,287.579,149.397,288.561,149.62z"/>
<path fill-rule="evenodd" clip-rule="evenodd" d="M312.23,192.547c0.941-1.916,4.533-2.254,7.623-3.208
	c42.659-13.199,87.143-25.976,129.585-39.318c0.399,0,0.802,0,1.2,0C405.32,165.012,358.022,178.025,312.23,192.547z"/>
<path fill-rule="evenodd" clip-rule="evenodd" fill="#FFFFFF" d="M201.5,150.421c1.886,15.064-2.925,26.714-11.636,32.498
	C193.615,171.96,192.787,156.42,201.5,150.421z"/>
<path fill-rule="evenodd" clip-rule="evenodd" d="M204.308,150.421c0.466-0.065,0.714,0.089,0.803,0.401
	c0.749,14.927-2.855,25.498-9.629,32.9C200.891,175.255,205.965,164.656,204.308,150.421z"/>
<path fill-rule="evenodd" clip-rule="evenodd" fill="#FFFFFF" d="M292.169,152.428c-13.475,7.522-27.813,14.182-40.121,22.868
	c-0.58-2.193,2.489-4.192,2.811-6.82c11.619-5.631,22.692-11.808,33.702-18.054C290.57,150.283,290.528,152.197,292.169,152.428z"/>
<path fill-rule="evenodd" clip-rule="evenodd" d="M298.589,182.919c21.395-11.101,44.489-20.503,66.199-31.294
	c0.681-0.147,0.758,0.313,0.802,0.803C342.848,162.184,321.437,173.271,298.589,182.919z"/>
<path fill-rule="evenodd" clip-rule="evenodd" d="M207.116,153.232c2.48,11.768-2.265,23.096-8.425,28.886
	C204.153,175.38,208.167,165.157,207.116,153.232z"/>
<path fill-rule="evenodd" clip-rule="evenodd" fill="#FFFFFF" d="M294.577,154.836c-14.787,8.884-30.167,17.173-45.736,25.275
	c3.733-6.119,14.832-11.376,21.663-15.247c7.838-4.438,15.451-8.142,22.067-11.633C293.502,153.502,293.646,154.563,294.577,154.836
	z"/>
<path fill-rule="evenodd" clip-rule="evenodd" d="M372.009,153.232c2.642,2.037,4.939,4.421,10.027,4.012
	C378.485,159.278,373.26,156.16,372.009,153.232z"/>
<path fill-rule="evenodd" clip-rule="evenodd" d="M475.517,153.232c0.465-0.065,0.711,0.087,0.801,0.401
	c-2.191,33.628-3.261,71.82-4.01,104.312c-1.034-33.196,1.74-69.912,3.209-103.509C475.517,154.033,475.517,153.633,475.517,153.232
	z"/>
<path fill-rule="evenodd" clip-rule="evenodd" d="M325.468,175.698c11.503-5.483,24.059-9.907,35.707-15.247
	c1.025-0.019,0.489,0.299,0.399,0.801C349.477,165.745,337.117,172.098,325.468,175.698z"/>
<path fill-rule="evenodd" clip-rule="evenodd" fill="#FFFFFF" d="M244.83,202.177c-1.895-1.184-3.809-2.343-5.617-3.611
	c17.256-7.082,32.444-16.234,47.741-25.275c-1.244,1.964-2.399,4.019-3.208,6.42c-5.243,1.882-10.158,5.363-15.247,8.424
	C260.732,192.808,252.852,197.419,244.83,202.177z"/>
<path fill-rule="evenodd" clip-rule="evenodd" fill="#FFFFFF" d="M245.231,201.776c13.402-5.99,25.087-13.696,36.91-21.263
	c1.029,1.711-1.547,3.256-1.604,5.213c-10.266,6.721-20.136,13.834-32.097,18.856C247.6,203.417,245.438,203.574,245.231,201.776z"
	/>
<path fill-rule="evenodd" clip-rule="evenodd" fill="#FFFFFF" d="M169.403,180.914c3.606,0.94,6.438,2.657,10.833,2.808
	c-2.677,3.205-5.545,6.225-7.222,10.43c-3.996,0.119-6.443-1.312-7.621-4.011C166.901,187.237,168.412,184.335,169.403,180.914z"/>
<path fill-rule="evenodd" clip-rule="evenodd" d="M363.582,180.914c-15.765,6.165-34.24,9.624-50.551,15.244
	c0.589-2.029,3.477-1.915,5.217-2.407C332.384,189.766,348.891,184.873,363.582,180.914z"/>
<path fill-rule="evenodd" clip-rule="evenodd" fill="#FFFFFF" d="M274.116,282.816c-10.783-7.667-21.038-15.87-28.884-26.478
	c12.905-24.27,25.833-48.521,38.514-73.019c3.196,5.23,6.013,10.837,11.232,14.043c-4.013-4.412-7.792-9.058-10.832-14.444
	c4.983,0.502,9.636,4.806,14.845,6.419c0.104,42.229-0.708,83.544-0.402,125.972c-20.921-12.907-41.502-26.161-64.593-36.909
	c3.123-7.569,7.338-14.059,10.833-21.258C253.154,267.136,262.293,276.318,274.116,282.816z M293.373,203.781
	c-2.207-4.894-6.747-10.893-10.832-15.244C285.844,193.925,289.683,198.781,293.373,203.781z M295.378,211.806
	c-3.952-5.275-10.47-11.458-13.639-18.857c-0.474-0.058-0.911-0.714-1.202,0C284.935,199.782,289.136,206.814,295.378,211.806z
	 M294.978,221.434c-5.518-6.52-10.504-13.567-15.647-20.461C283.667,208.674,288.581,215.796,294.978,221.434z M292.57,227.857
	c-6.036-7.876-12.497-15.324-19.256-22.472C279.22,213.387,285.753,220.76,292.57,227.857z M290.565,237.083
	c-6.652-6.588-12.569-13.915-19.658-20.063C277.075,223.894,283.949,232.204,290.565,237.083z M282.141,239.49
	c1.923,1.749,3.433,4.985,6.018,4.409c-8.889-6.622-15.912-15.109-24.072-22.465C269.046,227.789,276.266,234.137,282.141,239.49z
	 M286.151,257.143c-9.175-8.216-18.318-16.453-26.879-25.276C266.891,241.635,276.223,249.685,286.151,257.143z M268.899,251.522
	c4.734,4.439,9.569,9.69,15.247,11.64c-11.021-7.169-19.528-16.85-28.083-26.481C259.39,242.163,264.145,247.066,268.899,251.522z
	 M257.267,248.716c-0.934-0.846-2.538-2.261-3.61-2.009c9.41,8.512,18.374,17.467,28.083,25.682
	C274.109,264.81,265.086,255.821,257.267,248.716z M281.338,276.399c-11.717-6.473-21.633-14.74-30.894-23.67
	C258.713,262.378,269.699,271.455,281.338,276.399z M272.111,288.032c-11.798-6.392-20.919-15.458-30.091-24.473
	C250.094,273.407,260.459,283.1,272.111,288.032z M242.421,272.389c-0.815-0.724-1.466-2.853-2.808-2.007
	c8.339,7.569,17.348,16.617,27.281,21.263C258.507,286.031,249.636,278.744,242.421,272.389z M254.459,286.429
	c-6.11-3.393-11.793-9.337-18.055-11.236C242.56,278.532,248.318,284.41,254.459,286.429z"/>
<path fill-rule="evenodd" clip-rule="evenodd" fill="#FFFFFF" d="M202.303,191.345c-2.786,4.837-5.893,9.354-9.228,13.639
	c-5.806-2.889-9.709-7.676-18.455-7.622c-0.125-5.204,4.699-8.579,7.22-12.438C188.918,182.809,197.575,187.335,202.303,191.345z
	 M199.092,193.75c-1.756-1.858-4.493-4.861-6.819-4.812C194.68,190.408,196.345,192.62,199.092,193.75z M197.085,196.558
	c-1.932-2.616-5.976-5.253-8.825-5.615C191.388,192.628,193.958,194.873,197.085,196.558z M194.278,200.17
	c-1.81-3.673-5.442-5.523-10.029-6.42C187.78,195.704,191.925,197.04,194.278,200.17z"/>
<path fill-rule="evenodd" clip-rule="evenodd" fill="#FFFFFF" d="M254.859,206.992c-1.768-0.775-4.2-0.884-4.815-2.811
	c11.288-4.091,19.948-10.808,29.286-16.851C275.163,197.875,263.038,200.459,254.859,206.992z"/>
<path fill-rule="evenodd" clip-rule="evenodd" d="M192.273,188.938c2.326-0.049,5.063,2.954,6.819,4.812
	C196.345,192.62,194.68,190.408,192.273,188.938z"/>
<path fill-rule="evenodd" clip-rule="evenodd" d="M282.542,188.538c4.085,4.351,8.625,10.35,10.832,15.244
	C289.683,198.781,285.844,193.925,282.542,188.538z"/>
<path fill-rule="evenodd" clip-rule="evenodd" d="M188.26,190.943c2.85,0.361,6.894,2.999,8.825,5.615
	C193.958,194.873,191.388,192.628,188.26,190.943z"/>
<path fill-rule="evenodd" clip-rule="evenodd" d="M335.901,191.345c-5.796,2.895-12.746,4.644-19.257,6.82
	C322.257,195.091,329.257,193.39,335.901,191.345z"/>
<path fill-rule="evenodd" clip-rule="evenodd" d="M280.537,192.949c0.291-0.714,0.728-0.058,1.202,0
	c3.169,7.399,9.687,13.582,13.639,18.857C289.136,206.814,284.935,199.782,280.537,192.949z"/>
<path fill-rule="evenodd" clip-rule="evenodd" fill="#FFFFFF" d="M164.187,192.949c2.342,1.271,3.843,3.38,7.624,3.208
	c-3.187,1.629-7.272,2.358-10.031,4.415C161.047,198.092,163.914,195.757,164.187,192.949z"/>
<path fill-rule="evenodd" clip-rule="evenodd" d="M184.249,193.75c4.586,0.896,8.219,2.747,10.029,6.42
	C191.925,197.04,187.78,195.704,184.249,193.75z"/>
<path fill-rule="evenodd" clip-rule="evenodd" d="M329.88,196.558c0.506,0.102,0.406,0.8,0,0.805
	c-4.277,1.071-8.798,1.897-13.235,2.808C319.943,197.855,325.917,198.21,329.88,196.558z"/>
<path fill-rule="evenodd" clip-rule="evenodd" fill="#FFFFFF" d="M182.241,200.973c-10.133,3.09-29.057,11.975-30.891,25.271
	c-1.183,8.587,4.548,16.61,13.237,13.645c-8.705,7.86-21.411,1.241-22.867-8.824c-2.698-18.667,17.997-29.002,29.688-32.097
	C175.418,199.238,179.232,199.704,182.241,200.973z"/>
<path fill-rule="evenodd" clip-rule="evenodd" fill="#FFFFFF" d="M229.583,222.637c-3.813-1.783,0.84-8.212,2.407-11.233
	c2.051-3.95,4.525-8.393,6.82-10.831c0.489,3.49-2.214,7.319-4.013,10.831C232.896,215.121,230.732,218.799,229.583,222.637z"/>
<path fill-rule="evenodd" clip-rule="evenodd" d="M279.33,200.973c5.143,6.894,10.13,13.941,15.647,20.461
	C288.581,215.796,283.667,208.674,279.33,200.973z"/>
<path fill-rule="evenodd" clip-rule="evenodd" d="M466.687,201.374c2.339,15.705,1.737,35.833,0.805,52.562
	C467.183,237.417,467.919,218.104,466.687,201.374z"/>
<path fill-rule="evenodd" clip-rule="evenodd" fill="#FFFFFF" d="M270.503,202.978c0.27,2.548-2.681,5.337-3.609,8.026
	c-1.755-0.654-3.816-0.997-5.619-1.608C264.03,206.935,267.704,205.395,270.503,202.978z"/>
<path fill-rule="evenodd" clip-rule="evenodd" fill="#FFFFFF" d="M178.63,204.182c-4.028,12.554-13.525,23.121-23.67,30.894
	C148.384,218.822,167.322,209.042,178.63,204.182z"/>
<path fill-rule="evenodd" clip-rule="evenodd" d="M185.453,204.984c-1.3,9.936-7.459,18.483-15.247,23.268
	C177.156,222.367,182.756,215.126,185.453,204.984z"/>
<path fill-rule="evenodd" clip-rule="evenodd" d="M273.314,205.385c6.759,7.148,13.22,14.596,19.256,22.472
	C285.753,220.76,279.22,213.387,273.314,205.385z"/>
<path fill-rule="evenodd" clip-rule="evenodd" fill="#FFFFFF" d="M224.767,221.434c-16.13,30.275-31.969,60.836-48.141,91.073
	c-12.179-19.115-25.275-37.314-38.917-54.968c1.955-5.8,4.574-10.938,6.419-16.85c4.003,3.667,10.607,6.555,17.651,3.614
	c13.03-5.436,23.792-24.838,29.288-36.108c1.104-0.281,2.107,0.822,3.21-0.803C204.79,211.721,214.719,216.639,224.767,221.434z
	 M181.038,293.648c8.814-20.342,17.495-40.814,27.282-60.179C197.517,251.821,189.155,272.611,181.038,293.648z M184.249,270.778
	c-3.095,7.221-6.864,14.28-8.426,21.669c5.475-14.586,13.201-29.058,17.653-43.331C190.19,256.083,187.359,263.529,184.249,270.778z
	"/>
<path fill-rule="evenodd" clip-rule="evenodd" d="M181.841,218.622c1.723-2.419,1.825-6.46,4.413-8.02
	C184.706,213.2,184.258,216.897,181.841,218.622z"/>
<path fill-rule="evenodd" clip-rule="evenodd" d="M253.255,213.007c0.715-0.109,0.822,0.38,0.401,0.404
	c-2.538,6.825-6.206,12.516-8.827,19.256c-0.306-2.793,2.053-6.391,3.61-9.631C250.085,219.617,252.088,216.203,253.255,213.007z"/>
<path fill-rule="evenodd" clip-rule="evenodd" d="M270.907,217.019c7.089,6.148,13.006,13.476,19.658,20.063
	C283.949,232.204,277.075,223.894,270.907,217.019z"/>
<path fill-rule="evenodd" clip-rule="evenodd" d="M264.087,221.434c8.16,7.355,15.183,15.843,24.072,22.465
	c-2.584,0.576-4.094-2.66-6.018-4.409C276.266,234.137,269.046,227.789,264.087,221.434z"/>
<path fill-rule="evenodd" clip-rule="evenodd" d="M461.477,226.245c1.843,6.187,0.614,15.434,1.605,22.472
	C461.103,242.667,462.063,233.682,461.477,226.245z"/>
<path fill-rule="evenodd" clip-rule="evenodd" d="M232.391,227.857c-3.21,3.071-7.813,4.752-11.232,7.617
	C222.768,232.4,228.501,229.984,232.391,227.857z"/>
<path fill-rule="evenodd" clip-rule="evenodd" d="M259.271,231.867c8.562,8.823,17.705,17.061,26.879,25.276
	C276.223,249.685,266.891,241.635,259.271,231.867z"/>
<path fill-rule="evenodd" clip-rule="evenodd" fill="#FFFFFF" d="M244.429,236.68c-12.341,6.518-23.662,14.05-36.109,20.463
	c0.751-1.792,1.881-3.205,2.408-5.219c10.26-5.921,20.415-11.945,30.49-18.056C242.292,234.804,243.914,235.187,244.429,236.68z"/>
<path fill-rule="evenodd" clip-rule="evenodd" d="M457.062,236.276c1.992,2.955,1.69,8.202,2.81,12.038
	C457.804,245.432,458.051,240.235,457.062,236.276z"/>
<path fill-rule="evenodd" clip-rule="evenodd" d="M256.063,236.68c8.555,9.632,17.063,19.313,28.083,26.481
	c-5.678-1.949-10.512-7.2-15.247-11.64C264.145,247.066,259.39,242.163,256.063,236.68z"/>
<path fill-rule="evenodd" clip-rule="evenodd" fill="#FFFFFF" d="M248.841,239.889c-15.084,8.05-29.482,16.79-44.533,24.877
	c0.784-2.16,2.216-3.669,2.808-6.021c12.625-7.031,25.11-14.205,37.313-21.663C246.751,237.164,247.882,238.439,248.841,239.889z"/>
<path fill-rule="evenodd" clip-rule="evenodd" fill="#FFFFFF" d="M250.445,240.292c1.167,1.459-0.784,2.481-0.801,4.013
	c-15.813,8.798-32.108,17.107-47.743,26.078c-0.952-1.11,1.277-2.454,1.204-4.014C219.054,257.848,233.814,248.132,250.445,240.292z
	"/>
<path fill-rule="evenodd" clip-rule="evenodd" fill="#FFFFFF" d="M228.782,281.615c-13.435,7.297-27.735,13.723-42.928,19.257
	c-0.563-2.311,2.424-4.524,2.807-7.224c16.145-5.251,30.342-12.45,42.929-21.259c-12.377,6.882-26.58,15.406-42.125,20.457
	c0.511-2.295,2.009-3.607,2.809-5.615c16.818-6.719,32.354-14.723,46.137-24.472c-13.624,7.636-28.67,17.332-45.334,23.265
	c0.879-2.728,2.55-4.664,3.609-7.218c15.064-7.804,30.04-15.702,44.533-24.07c-4.172,1.045-7.682,3.688-11.232,5.616
	c-10.593,5.74-21.426,11.482-32.498,17.247c0.887-2.054,2.147-3.737,2.809-6.014c16.329-8.278,31.982-17.232,48.144-25.68
	c-7.626,14.977-15.839,29.361-23.271,44.533c-14.376,5.282-27.518,11.802-42.928,16.048c1.405-6.423,9.125-7.087,15.647-9.631
	C208.521,292.718,219.967,287.736,228.782,281.615z"/>
<path fill-rule="evenodd" clip-rule="evenodd" d="M281.739,272.389c-9.709-8.215-18.673-17.17-28.083-25.682
	c1.072-0.252,2.677,1.163,3.61,2.009C265.086,255.821,274.109,264.81,281.739,272.389z"/>
<path fill-rule="evenodd" clip-rule="evenodd" d="M193.477,249.116c-4.452,14.273-12.178,28.745-17.653,43.331
	c1.562-7.389,5.331-14.448,8.426-21.669C187.359,263.529,190.19,256.083,193.477,249.116z"/>
<path fill-rule="evenodd" clip-rule="evenodd" d="M266.895,291.645c-9.934-4.646-18.942-13.693-27.281-21.263
	c1.342-0.846,1.992,1.283,2.808,2.007C249.636,278.744,258.507,286.031,266.895,291.645z"/>
<path fill-rule="evenodd" clip-rule="evenodd" d="M236.405,275.193c6.261,1.899,11.945,7.844,18.055,11.236
	C248.318,284.41,242.56,278.532,236.405,275.193z"/>
<path fill-rule="evenodd" clip-rule="evenodd" fill="#FFFFFF" d="M223.566,291.241c0.682-0.146,0.755,0.314,0.801,0.805
	c-6.335,11.047-12.288,22.486-18.054,34.103c-2.956-0.522-4.351-2.604-7.221-3.214c2.628-1.65,6.22-2.336,9.228-3.607
	c-4.861-0.475-9.806,5.032-14.843,1.2c5.864-2.557,12.579-4.266,17.251-8.02c-5.794,1.014-11.331,7.37-18.455,7.219
	c-5.015-0.106-8.992-4.395-14.444-4.416c0.898-3.105,2.605-5.412,4.012-8.019C196.709,302.901,210.528,297.46,223.566,291.241z
	 M181.438,313.708c13.417-3.566,24.991-8.977,36.912-14.04c0.057-0.477,0.714-0.91,0-1.203
	C207.239,304.741,193.677,308.56,181.438,313.708z M184.65,316.517c12.025-2.018,21.367-6.716,31.292-10.831
	c0.058-0.475,0.714-0.908,0-1.207C206.868,309.854,195.489,312.916,184.65,316.517z"/>
<path fill-rule="evenodd" clip-rule="evenodd" d="M347.939,297.66c1.234,1.204-2.554,1.21-4.017,1.608
	c-11.619,3.163-25.618,7.274-37.713,10.031C319.267,304.567,334.174,301.686,347.939,297.66z"/>
<path fill-rule="evenodd" clip-rule="evenodd" d="M317.846,298.062c-1.827,2.316-6.398,1.894-8.824,3.613
	C309.586,299.693,315.195,299.293,317.846,298.062z"/>
<path fill-rule="evenodd" clip-rule="evenodd" d="M218.351,298.464c0.714,0.293,0.057,0.727,0,1.203
	c-11.921,5.063-23.495,10.474-36.912,14.04C193.677,308.56,207.239,304.741,218.351,298.464z"/>
<path fill-rule="evenodd" clip-rule="evenodd" d="M325.468,300.07c-4.616,2.467-11.015,3.159-16.446,4.814
	C313.642,302.416,319.987,301.675,325.468,300.07z"/>
<path fill-rule="evenodd" clip-rule="evenodd" d="M215.942,304.479c0.714,0.299,0.058,0.732,0,1.207
	c-9.926,4.115-19.267,8.813-31.292,10.831C195.489,312.916,206.868,309.854,215.942,304.479z"/>
<path fill-rule="evenodd" clip-rule="evenodd" d="M482.339,132.367c1.976,11.751-0.219,24.106-0.802,36.509
	c-1.752,37.005-3.566,74.401-6.021,111.13c-52.019,11.936-108.911,24.363-163.286,36.916c-3.714,0.857-8.497,2.597-10.833,2.404
	c-2.426-0.2-5.53-3.343-8.424-5.217c-19.643-12.703-38.892-23.362-59.779-34.104c-9.382,15.762-17.294,32.99-26.479,48.948
	c-9.472-4.971-19.273-9.613-31.292-12.032c-0.739-5.409-6.205-11.832-10.433-18.059c-6.299-9.276-12.443-18.776-19.257-27.681
	c-3.352-4.384-6.596-9.086-10.832-11.636c2.29-7.202,5.171-13.818,8.024-20.463c-9.453-15.24,3.04-32.158,15.246-36.908
	c11.681-26.449,22.965-52.716,35.706-78.635c4.163-8.471,9.626-16.426,11.634-25.677c15.234,6.563,28.959,14.638,42.929,22.467
	c34.987-8.306,70.993-16.519,107.123-24.875c5.004-1.157,11.24-3.662,15.24-3.609c3.438,0.045,9.516,3.403,14.046,5.213
	C415.959,109.512,450.825,122.78,482.339,132.367z M251.248,121.536c6.692,5.792,17.781,9.169,22.467,15.647
	c8.942,4.965,16.712,11.104,24.073,17.653c0.903,0.898-0.028,2.011-0.402,2.808c22.876-10.691,45.356-23.916,67.802-33.701
	c-22.707,11.798-45.487,23.518-68.606,34.904c-3.477,7.49-7.537,14.394-11.232,21.667c5.538,2.217,10.279,5.23,15.646,7.622
	c21.909-8.586,44.854-16.13,67.802-23.671c1.278-22.956,4.25-46.268,2.807-70.61c-0.269,0-0.534,0-0.802,0
	C331.144,103.271,291.271,112.479,251.248,121.536z M374.018,106.692c-0.072,19.989-1.909,39.447-3.215,56.971
	c7.118-1.71,13.217-4.438,20.462-6.019c-4.938-4.424-13.328-5.394-18.052-10.03c3.131,1.38,6.155,3.109,9.628,4.814
	c2.8,1.377,7.159,4.247,10.026,4.414c2.161,0.126,6.984-1.772,10.437-2.808c23.727-7.125,51.11-14.935,73.818-20.863
	c-34.886-12.187-69.783-24.365-103.104-38.113c0,3.477,0,6.955,0,10.431c16.455,10.022,35.257,17.698,54.56,24.874
	C408.292,124.568,391.097,115.687,374.018,106.692z M207.516,101.077c-12.876,25.368-25.153,51.337-36.909,77.83
	c3.069,1.347,7.501,3.461,11.634,2.409c-4.721-15.934,5.398-38.69,19.259-38.517c7.924,0.101,11.231,8.116,11.635,15.247
	c0.767,13.594-5.23,23.789-10.431,31.293c6.856,3.515,16.542,5.456,25.275,6.819c2.581,0.407,6.814-0.036,8.025,2.811
	c-10.842-0.134-22.13-3.275-31.295-6.421c-3.481,3.876-6.441,8.271-8.825,13.242c9.857,4.854,20.333,9.084,30.087,14.039
	c14.288-28.509,29.484-56.105,44.132-84.249C249.383,123.62,230.356,111.438,207.516,101.077z M456.659,140.793
	c-53.83,14.501-106.117,30.813-155.663,49.348c0.245,42.77-0.698,84.356-0.4,127.177c58.244-12.979,115.94-26.013,173.318-38.918
	c2.154-48.312,5.527-95.767,7.218-143.626C473.711,136.125,464.676,138.634,456.659,140.793z M269.703,140.793
	c1.086-0.518,2.478-0.729,2.809-2.005c-0.759,0.091-0.886-0.452-1.604-0.402C270.549,139.235,269.684,139.573,269.703,140.793z
	 M266.494,146.813c3.698-1.116,6.109-3.52,10.029-4.415c-4.045,3.576-11.521,3.723-12.837,10.03
	c5.523-2.632,10.33-5.984,16.048-8.426C276.124,137.493,268.139,140.221,266.494,146.813z M280.135,144.002
	c-5.363,3.6-11.361,6.561-17.251,9.631c-0.228,1.392-2.346,2.982-1.608,4.011c6.512-4.591,13.254-8.948,21.266-12.035
	C282.293,144.516,281.439,144.035,280.135,144.002z M197.085,145.609c-10.213,4.336-16.762,22.872-12.836,36.509
	c1.612-0.278,2.29,0.384,3.609,0.401c4.781-13.163,2.498-35.452,19.258-35.305C204.295,144.943,200.436,144.186,197.085,145.609z
	 M282.542,146.01c-6.965,2.55-16.79,9.696-22.87,13.238c0.074,1.562-2.156,2.903-1.203,4.013
	c8.209-6.236,18.106-10.778,27.682-15.647C284.961,147.365,283.995,145.478,282.542,146.01z M286.151,148.417
	c-10.535,5.913-22.993,9.902-30.49,18.855c11.292-5.56,22.191-11.508,32.9-17.652C287.579,149.397,287.705,148.068,286.151,148.417z
	 M207.516,177.703c0.092-0.681-0.45-0.991-0.4,0c-2.111,3.106-3.384,7.048-6.417,9.228c1.374-2.399,3.072-4.494,4.813-8.024
	c1.531-3.102,3.322-9.994,4.415-8.423c1.972-8.052,2.911-24.529-8.025-20.463c3.158,14.567-3.31,25.985-10.029,33.299
	c3.915,0.765,6.395,2.967,9.628,4.413C203.549,184.433,205.65,181.184,207.516,177.703z M189.864,182.919
	c8.71-5.783,13.522-17.434,11.636-32.498C192.787,156.42,193.615,171.96,189.864,182.919z M288.561,150.421
	c-11.009,6.247-22.083,12.423-33.702,18.054c-0.321,2.628-3.39,4.627-2.811,6.82c12.308-8.687,26.646-15.346,40.121-22.868
	C290.528,152.197,290.57,150.283,288.561,150.421z M292.57,153.232c-6.616,3.491-14.229,7.195-22.067,11.633
	c-6.831,3.871-17.929,9.127-21.663,15.247c15.569-8.102,30.949-16.391,45.736-25.275
	C293.646,154.563,293.502,153.502,292.57,153.232z M244.83,187.733c-0.355,1.266-2.142,3.188-1.606,4.013
	c14.009-8.248,31.458-15.256,43.73-23.671c0.935,0,1.874,0,2.811,0c1.744-4.271,4.274-7.757,6.016-12.035
	c-15.753,6.714-30.889,17.521-47.34,24.874c-0.535,1.879-2.806,4.136-2.407,5.615c14.581-8.554,29.383-16.886,44.533-24.873
	C275.963,170.99,260.005,178.972,244.83,187.733z M242.421,192.547c-0.676,1.605-2.771,3.905-2.407,5.218
	c16.866-7.608,32.338-16.609,47.743-25.678c-0.057-1.415,1.926-2.862,1.205-3.612C273.587,176.638,258.231,184.821,242.421,192.547z
	 M248.44,204.583c11.961-5.021,21.832-12.135,32.097-18.856c0.057-1.957,2.633-3.501,1.604-5.213
	c-11.823,7.567-23.507,15.273-36.91,21.263C245.438,203.574,247.6,203.417,248.44,204.583z M279.33,187.331
	c-9.338,6.043-17.998,12.76-29.286,16.851c0.615,1.927,3.047,2.036,4.815,2.811C263.038,200.459,275.163,197.875,279.33,187.331z
	 M255.661,207.793c1.963-0.09,2.521,1.224,4.412,1.204c5.528-3.837,13.96-6.905,14.846-14.043
	C268.97,199.704,261.156,202.589,255.661,207.793z M268.499,188.135c5.089-3.062,10.004-6.542,15.247-8.424
	c0.81-2.401,1.964-4.456,3.208-6.42c-15.296,9.041-30.485,18.193-47.741,25.275c1.808,1.268,3.722,2.427,5.617,3.611
	C252.852,197.419,260.732,192.808,268.499,188.135z M165.394,190.142c1.177,2.699,3.625,4.13,7.621,4.011
	c1.677-4.206,4.545-7.225,7.222-10.43c-4.395-0.151-7.227-1.868-10.833-2.808C168.412,184.335,166.901,187.237,165.394,190.142z
	 M244.83,257.143c-3.496,7.199-7.71,13.688-10.833,21.258c23.091,10.748,43.672,24.002,64.593,36.909
	c-0.306-42.428,0.505-83.743,0.402-125.972c-5.209-1.613-9.862-5.917-14.845-6.419c3.04,5.386,6.819,10.032,10.832,14.444
	c-5.219-3.206-8.036-8.813-11.232-14.043c-12.681,24.497-25.608,48.749-38.514,73.019c7.846,10.607,18.101,18.811,28.884,26.478
	C262.293,276.318,253.154,267.136,244.83,257.143z M181.841,184.925c-2.521,3.858-7.344,7.234-7.22,12.438
	c8.746-0.055,12.649,4.733,18.455,7.622c3.334-4.286,6.442-8.802,9.228-13.639C197.575,187.335,188.918,182.809,181.841,184.925z
	 M161.78,200.573c2.758-2.057,6.844-2.786,10.031-4.415c-3.78,0.171-5.282-1.938-7.624-3.208
	C163.914,195.757,161.047,198.092,161.78,200.573z M171.41,198.968c-11.692,3.094-32.387,13.43-29.688,32.097
	c1.456,10.065,14.162,16.685,22.867,8.824c-8.689,2.966-14.42-5.058-13.237-13.645c1.833-13.297,20.757-22.182,30.891-25.271
	C179.232,199.704,175.418,199.238,171.41,198.968z M247.637,236.276c1.774,0.636,2.818,1.998,4.412,2.809
	c4.5-8.873,9.594-17.151,13.642-26.474c-9.99-2.18-17.965-6.378-25.677-10.834c-3.383,7.049-7.012,13.846-10.029,21.26
	c0.956,0.652,1.768,1.443,2.807,2.008c3.14-6.753,5.992-13.802,9.628-20.06c-2.412,7.482-6.627,13.164-8.827,20.865
	c1.045,0.159,1.212,1.194,2.41,1.2c3.178-6.447,6.459-14.935,10.029-19.657c-2.903,7.129-7.155,12.907-9.228,20.86
	c1.285,0.188,1.413,1.531,2.808,1.606c3.688-6.741,7.358-15.646,11.232-20.862c-3.483,7.345-7.287,14.38-10.832,21.664
	c2.833,1.181,4.473,3.551,7.222,4.813c4.482-7.951,8.456-16.415,13.239-24.07C256.791,220.287,251.799,227.87,247.637,236.276z
	 M234.797,211.404c1.799-3.512,4.502-7.341,4.013-10.831c-2.295,2.438-4.769,6.881-6.82,10.831
	c-1.567,3.021-6.221,9.45-2.407,11.233C230.732,218.799,232.896,215.121,234.797,211.404z M178.63,224.244
	c4.783-5.959,8.997-12.277,11.234-18.054c-1.517-1.959-3.716-3.238-6.016-4.413c-3.679,14.91-12.16,27.16-23.271,33.299
	c10.188-7.736,18.459-17.38,22.063-31.695c-4.106,6.122-6.954,12.771-11.232,18.456c-4.338,5.762-9.566,10.18-14.442,15.246
	C167.125,240.407,173.425,230.732,178.63,224.244z M261.276,209.396c1.803,0.611,3.864,0.954,5.619,1.608
	c0.928-2.689,3.878-5.478,3.609-8.026C267.704,205.395,264.03,206.935,261.276,209.396z M154.96,235.076
	c10.145-7.773,19.642-18.34,23.67-30.894C167.322,209.042,148.384,218.822,154.96,235.076z M194.278,207.393
	c-1.104,1.625-2.106,0.522-3.21,0.803c-5.496,11.271-16.258,30.673-29.288,36.108c-7.044,2.94-13.648,0.053-17.651-3.614
	c-1.846,5.912-4.465,11.05-6.419,16.85c13.642,17.653,26.738,35.853,38.917,54.968c16.172-30.237,32.011-60.798,48.141-91.073
	C214.719,216.639,204.79,211.721,194.278,207.393z M237.206,231.462c-9.604,5.106-21.001,8.421-25.275,18.859
	c9.692-5.288,18.624-11.337,28.485-16.453c-4.269-4.727-10.61-7.799-14.445-10.832c-2.65,6.847-7.67,13.46-9.628,19.662
	C222.292,238.211,229.75,233.101,237.206,231.462z M241.218,233.869c-10.076,6.11-20.23,12.135-30.49,18.056
	c-0.527,2.014-1.657,3.427-2.408,5.219c12.448-6.413,23.769-13.945,36.109-20.463C243.914,235.187,242.292,234.804,241.218,233.869z
	 M244.429,237.083c-12.203,7.458-24.688,14.632-37.313,21.663c-0.591,2.352-2.024,3.86-2.808,6.021
	c15.05-8.087,29.448-16.827,44.533-24.877C247.882,238.439,246.751,237.164,244.429,237.083z M203.104,266.369
	c0.073,1.56-2.156,2.903-1.204,4.014c15.635-8.971,31.93-17.28,47.743-26.078c0.017-1.531,1.969-2.554,0.801-4.013
	C233.814,248.132,219.054,257.848,203.104,266.369z M197.888,296.856c-6.522,2.544-14.242,3.208-15.647,9.631
	c15.41-4.246,28.552-10.766,42.928-16.048c7.432-15.172,15.644-29.557,23.271-44.533c-16.162,8.447-31.815,17.401-48.144,25.68
	c-0.662,2.276-1.922,3.96-2.809,6.014c11.072-5.765,21.905-11.507,32.498-17.247c3.551-1.928,7.06-4.571,11.232-5.616
	c-14.494,8.368-29.469,16.267-44.533,24.07c-1.059,2.554-2.729,4.49-3.609,7.218c16.664-5.933,31.71-15.629,45.334-23.265
	c-13.783,9.749-29.319,17.753-46.137,24.472c-0.8,2.008-2.298,3.32-2.809,5.615c15.545-5.051,29.749-13.575,42.125-20.457
	c-12.586,8.809-26.784,16.008-42.929,21.259c-0.383,2.699-3.37,4.913-2.807,7.224c15.193-5.534,29.493-11.96,42.928-19.257
	C219.967,287.736,208.521,292.718,197.888,296.856z M181.841,307.292c-1.407,2.606-3.113,4.913-4.012,8.019
	c5.452,0.021,9.429,4.31,14.444,4.416c7.124,0.151,12.66-6.205,18.455-7.219c-4.672,3.754-11.387,5.463-17.251,8.02
	c5.037,3.832,9.982-1.675,14.843-1.2c-3.007,1.271-6.599,1.957-9.228,3.607c2.87,0.61,4.265,2.691,7.221,3.214
	c5.767-11.616,11.719-23.056,18.054-34.103c-0.045-0.49-0.119-0.951-0.801-0.805C210.528,297.46,196.709,302.901,181.841,307.292z"
	/>
<path fill-rule="evenodd" clip-rule="evenodd" d="M369.197,105.087c-19.786,12.571-42.746,21.978-65.794,31.294
	c7.277-4.142,15.367-6.592,22.866-10.032C341.03,119.58,355.354,112.553,369.197,105.087z"/>
<path fill-rule="evenodd" clip-rule="evenodd" d="M377.621,114.715c7.131,3.648,14.265,8.223,22.068,11.635
	c7.892,3.448,16.266,5.766,23.672,9.229C406.213,130.524,390.654,123.885,377.621,114.715z"/>
<path fill-rule="evenodd" clip-rule="evenodd" fill="#FFFFFF" d="M428.577,130.362c-19.303-7.176-38.104-14.852-54.56-24.874
	c0-3.477,0-6.955,0-10.431c33.321,13.748,68.219,25.927,103.104,38.113c-22.708,5.928-50.092,13.737-73.818,20.863
	c-3.452,1.036-8.275,2.935-10.437,2.808c-2.867-0.167-7.227-3.037-10.026-4.414c-3.473-1.705-6.497-3.434-9.628-4.814
	c4.724,4.636,13.114,5.606,18.052,10.03c-7.245,1.581-13.344,4.309-20.462,6.019c1.306-17.524,3.143-36.982,3.215-56.971
	C391.097,115.687,408.292,124.568,428.577,130.362z M423.361,135.579c-7.406-3.463-15.78-5.781-23.672-9.229
	c-7.804-3.412-14.938-7.986-22.068-11.635C390.654,123.885,406.213,130.524,423.361,135.579z M412.529,140.393
	c-14.105-4.353-26.422-12.629-38.512-17.653c11.268,6.379,22.642,12.664,35.702,17.251c1.142,1.403,2.18,2.904,5.217,2.407
	C414.372,139.766,411.41,142.79,412.529,140.393z M404.504,148.016c-8.502-5.272-18.677-8.872-28.083-13.241
	C384.958,140.014,395.125,143.621,404.504,148.016z M398.49,153.232c-8.113-3.928-17.103-9.112-24.077-12.839
	C381.487,145.625,389.397,150.013,398.49,153.232z M382.036,157.244c-5.088,0.41-7.386-1.975-10.027-4.012
	C373.26,156.16,378.485,159.278,382.036,157.244z"/>
<path fill-rule="evenodd" clip-rule="evenodd" fill="#FFFFFF" d="M201.5,187.733c-3.233-1.446-5.713-3.648-9.628-4.413
	c6.719-7.314,13.187-18.732,10.029-33.299c10.936-4.066,9.998,12.411,8.025,20.463c-1.093-1.571-2.884,5.321-4.415,8.423
	c-1.741,3.53-3.439,5.625-4.813,8.024c3.033-2.179,4.306-6.122,6.417-9.228c-0.05-0.991,0.493-0.681,0.4,0
	C205.65,181.184,203.549,184.433,201.5,187.733z M195.481,183.722c6.774-7.402,10.378-17.973,9.629-32.9
	c-0.089-0.312-0.337-0.466-0.803-0.401C205.965,164.656,200.891,175.255,195.481,183.722z M198.691,182.118
	c6.16-5.79,10.905-17.118,8.425-28.886C208.167,165.157,204.153,175.38,198.691,182.118z"/>
<path fill-rule="evenodd" clip-rule="evenodd" fill="#FFFFFF" d="M290.565,161.657c-15.15,7.986-29.952,16.319-44.533,24.873
	c-0.399-1.479,1.873-3.736,2.407-5.615c16.452-7.353,31.587-18.16,47.34-24.874c-1.741,4.277-4.271,7.763-6.016,12.035
	c-0.937,0-1.876,0-2.811,0c-12.272,8.415-29.721,15.423-43.73,23.671c-0.536-0.825,1.25-2.747,1.606-4.013
	C260.005,178.972,275.963,170.99,290.565,161.657z"/>
<path fill-rule="evenodd" clip-rule="evenodd" fill="#FFFFFF" d="M288.961,168.476c0.722,0.75-1.261,2.197-1.205,3.612
	c-15.404,9.068-30.877,18.07-47.743,25.678c-0.364-1.313,1.73-3.613,2.407-5.218C258.231,184.821,273.587,176.638,288.961,168.476z"
	/>
<path fill-rule="evenodd" clip-rule="evenodd" fill="#FFFFFF" d="M274.918,194.954c-0.885,7.138-9.318,10.206-14.846,14.043
	c-1.891,0.021-2.449-1.294-4.412-1.204C261.156,202.589,268.97,199.704,274.918,194.954z"/>
<path fill-rule="evenodd" clip-rule="evenodd" fill="#FFFFFF" d="M260.475,211.404c-4.783,7.655-8.757,16.119-13.239,24.07
	c-2.75-1.263-4.39-3.633-7.222-4.813c3.545-7.283,7.349-14.318,10.832-21.664c-3.875,5.216-7.544,14.121-11.232,20.862
	c-1.395-0.075-1.523-1.419-2.808-1.606c2.072-7.953,6.325-13.73,9.228-20.86c-3.57,4.722-6.851,13.209-10.029,19.657
	c-1.198-0.006-1.365-1.041-2.41-1.2c2.2-7.701,6.415-13.383,8.827-20.865c-3.637,6.258-6.488,13.307-9.628,20.06
	c-1.04-0.564-1.852-1.355-2.807-2.008c3.017-7.414,6.646-14.211,10.029-21.26c7.711,4.457,15.687,8.655,25.677,10.834
	c-4.048,9.322-9.142,17.601-13.642,26.474c-1.593-0.811-2.638-2.173-4.412-2.809C251.799,227.87,256.791,220.287,260.475,211.404z
	 M248.44,223.037c-1.557,3.24-3.916,6.838-3.61,9.631c2.621-6.74,6.289-12.431,8.827-19.256c0.421-0.024,0.314-0.514-0.401-0.404
	C252.088,216.203,250.085,219.617,248.44,223.037z"/>
<path fill-rule="evenodd" clip-rule="evenodd" fill="#FFFFFF" d="M156.968,237.083c4.876-5.066,10.104-9.484,14.442-15.246
	c4.278-5.685,7.126-12.334,11.232-18.456c-3.604,14.315-11.875,23.959-22.063,31.695c11.11-6.14,19.591-18.39,23.271-33.299
	c2.299,1.175,4.499,2.454,6.016,4.413c-2.237,5.777-6.451,12.095-11.234,18.054C173.425,230.732,167.125,240.407,156.968,237.083z
	 M186.254,210.602c-2.588,1.56-2.69,5.601-4.413,8.02C184.258,216.897,184.706,213.2,186.254,210.602z M170.206,228.252
	c7.787-4.785,13.946-13.332,15.247-23.268C182.756,215.126,177.156,222.367,170.206,228.252z"/>
<path fill-rule="evenodd" clip-rule="evenodd" fill="#FFFFFF" d="M216.343,242.699c1.958-6.202,6.978-12.815,9.628-19.662
	c3.835,3.033,10.177,6.105,14.445,10.832c-9.861,5.116-18.793,11.165-28.485,16.453c4.273-10.438,15.67-13.753,25.275-18.859
	C229.75,233.101,222.292,238.211,216.343,242.699z M221.159,235.474c3.418-2.865,8.022-4.546,11.232-7.617
	C228.501,229.984,222.768,232.4,221.159,235.474z"/>
<path fill-rule="evenodd" clip-rule="evenodd" d="M208.319,233.469c-9.787,19.364-18.467,39.837-27.282,60.179
	C189.155,272.611,197.517,251.821,208.319,233.469z"/>
<path fill-rule="evenodd" clip-rule="evenodd" d="M250.445,252.729c9.26,8.93,19.176,17.197,30.894,23.67
	C269.699,271.455,258.713,262.378,250.445,252.729z"/>
<path fill-rule="evenodd" clip-rule="evenodd" d="M242.02,263.559c9.171,9.015,18.293,18.081,30.091,24.473
	C260.459,283.1,250.094,273.407,242.02,263.559z"/>
<path fill-rule="evenodd" clip-rule="evenodd" d="M433.392,277.599c-41.799,12.503-84.697,23.899-127.182,35.71
	C347.69,300.488,390.72,289.23,433.392,277.599z"/>
</svg>
